<svg xmlns="http://www.w3.org/2000/svg" width="88.002" height="56" viewBox="0 0 88.002 56"><g transform="translate(0 0)"><g transform="translate(0 0)"><path d="M180.347,209.182c-2.175,0-3.442-1.171-4.738-2.746l-2.146,2.153c.677.694,1.44,1.4,2.247,2.153a6.67,6.67,0,0,0,4.507,1.575,6.433,6.433,0,0,0,4.465-1.806,5.647,5.647,0,0,0,1.958-4.307,6.029,6.029,0,0,0-.144-1.315,4.877,4.877,0,0,0-.4-1.2,5.353,5.353,0,0,0-1.887-2.11,9.878,9.878,0,0,0-2.535-1.33c-1.411-.52-2.175-.795-2.275-.853a2.108,2.108,0,0,1-1.354-1.85,1.7,1.7,0,0,1,.864-1.488,2.98,2.98,0,0,1,1.714-.506A5.487,5.487,0,0,1,184,196.783l1.958-2.254a6.455,6.455,0,0,0-5.213-2.023,6.761,6.761,0,0,0-4.09,1.286,4.418,4.418,0,0,0-1.944,3.714,4.619,4.619,0,0,0,2.232,4.061c1.382.636,2.765,1.272,4.147,1.922,1.484.708,2.233,1.575,2.233,2.616a3.123,3.123,0,0,1-.821,2.2A2.86,2.86,0,0,1,180.347,209.182Z" transform="translate(-138.463 -192.433)" fill="#999ca3"/><path d="M39.645,199.811a4.1,4.1,0,1,1,8.209,0v12.284h3.456V199.811a4.1,4.1,0,1,1,8.209,0v12.284h3.456V199.811a7.555,7.555,0,0,0-13.393-4.826,7.512,7.512,0,0,0-5.833-2.76,7.591,7.591,0,0,0-7.561,7.587v12.284h3.456Z" transform="translate(-36.189 -192.224)" fill="#999"/><rect width="3.456" height="19.871" transform="translate(29.47)" fill="#999"/><path d="M234.376,212.094h3.456v-16.4h3.759v-3.468H230.646v3.468h3.73Z" transform="translate(-180.986 -192.224)" fill="#999"/><path d="M293.75,212.094v-3.468h-5.616V203.5h5.185v-3.468h-5.185v-4.336h5.616v-3.468h-9.073v19.871h9.073Z" transform="translate(-221.497 -192.224)" fill="#999"/><path d="M334.848,206.965h.792a9.313,9.313,0,0,0,1.57-.145l3.37,5.275h4.1l-4.263-6.676a6.928,6.928,0,0,0,2.78-5.607,7.591,7.591,0,0,0-7.561-7.587h-4.249v19.871h3.456v-5.13Zm.792-11.272a4.119,4.119,0,0,1,4.1,4.119c0,2.269-1.844,3.685-4.1,3.685h-.792v-7.8Z" transform="translate(-256.682 -192.224)" fill="#999"/><g transform="translate(0 22.674)"><path d="M40.74,298.02H51.569v9.048H56.12V290.876a9.966,9.966,0,1,0-19.931,0v16.192H40.74Zm5.407-12.57a5.422,5.422,0,0,1,5.407,5.426v2.577H40.74v-2.577A5.422,5.422,0,0,1,46.148,285.45Z" transform="translate(-36.189 -280.782)" fill="#e94f2d"/><path d="M139.844,307.125a10,10,0,0,0,9.973-10.008V280.925h-4.551v16.192a5.407,5.407,0,1,1-10.815,0V280.925H129.9v16.192A9.967,9.967,0,0,0,139.844,307.125Z" transform="translate(-106.145 -280.824)" fill="#e94f2d"/><path d="M228.378,307.125h4.551V285.492h4.936v-4.567H223.442v4.567h4.936Z" transform="translate(-175.975 -280.824)" fill="#e94f2d"/><path d="M293.4,306.73a13.1,13.1,0,1,0-13.054-13.1A13.083,13.083,0,0,0,293.4,306.73Zm.1-21.532a8.533,8.533,0,1,1-8.5,8.533A8.53,8.53,0,0,1,293.5,285.2Z" transform="translate(-218.452 -280.53)" fill="#e94f2d"/></g><rect width="88" height="3.454" transform="translate(0 52.546)" fill="#e94f2d"/></g></g></svg>